<svg id="visual" viewBox="0 0 900 600" width="900" height="600" xmlns="http://www.w3.org/2000/svg" xmlns:xlink="http://www.w3.org/1999/xlink" version="1.1"><rect x="0" y="0" width="900" height="600" fill="#140021"></rect><path d="M0 345L129 345L129 283L257 283L257 328L386 328L386 316L514 316L514 354L643 354L643 315L771 315L771 352L900 352L900 309L900 601L900 601L771 601L771 601L643 601L643 601L514 601L514 601L386 601L386 601L257 601L257 601L129 601L129 601L0 601Z" fill="#9900ff"></path><path d="M0 347L129 347L129 349L257 349L257 354L386 354L386 399L514 399L514 456L643 456L643 362L771 362L771 385L900 385L900 428L900 601L900 601L771 601L771 601L643 601L643 601L514 601L514 601L386 601L386 601L257 601L257 601L129 601L129 601L0 601Z" fill="#7700c6"></path><path d="M0 511L129 511L129 508L257 508L257 472L386 472L386 545L514 545L514 468L643 468L643 510L771 510L771 513L900 513L900 517L900 601L900 601L771 601L771 601L643 601L643 601L514 601L514 601L386 601L386 601L257 601L257 601L129 601L129 601L0 601Z" fill="#560090"></path></svg>